<svg width="603" height="187" viewBox="0 0 603 187" fill="none" xmlns="http://www.w3.org/2000/svg">
<g clip-path="url(#clip0_282_7344)">
<path d="M108.462 129.113C103.812 139.796 88.731 139.278 84.8011 128.299L59.4164 57.3964C58.6591 55.2809 58.4146 53.011 58.7037 50.7789C58.9927 48.5469 59.8069 46.4187 61.077 44.5747C62.3471 42.7306 64.0359 41.2252 66 40.1859C67.9641 39.1466 70.1457 38.6042 72.3599 38.6047V36.3135H0V38.6047C4.03406 38.6079 7.96972 39.8714 11.2742 42.2241C14.5787 44.5768 17.0924 47.905 18.4752 51.7582L66.3395 185.468H85.4527L109.086 131.225L109.765 129.693L108.475 129.113H108.462Z" fill="white"/>
<path d="M192.761 129.113C188.111 139.796 173.03 139.278 169.1 128.299L143.702 57.3964C142.945 55.2809 142.7 53.011 142.989 50.7789C143.278 48.5469 144.092 46.4187 145.362 44.5747C146.633 42.7306 148.321 41.2252 150.285 40.1859C152.25 39.1466 154.431 38.6042 156.645 38.6047V36.3135H84.2854V38.6047C88.3135 38.6063 92.2441 39.8643 95.5466 42.2091C98.8492 44.5539 101.365 47.8724 102.754 51.7168L150.625 185.433H169.738L193.372 131.19L194.05 129.658L192.761 129.079V129.113Z" fill="white"/>
<path d="M253.724 36.2586C249.041 36.2586 244.404 35.3207 240.078 33.4985C235.751 31.6764 231.82 29.0056 228.509 25.6387C225.197 22.2718 222.57 18.2746 220.778 13.8755C218.986 9.47646 218.064 4.76154 218.064 0L215.77 0C215.77 9.61637 212.013 18.8389 205.325 25.6387C198.637 32.4385 189.567 36.2586 180.109 36.2586V38.5911C189.567 38.5911 198.637 42.4112 205.325 49.211C212.013 56.0108 215.77 65.2333 215.77 74.8497H218.064C218.064 70.0882 218.986 65.3732 220.778 60.9741C222.57 56.5751 225.197 52.5779 228.509 49.211C231.82 45.8441 235.751 43.1733 240.078 41.3512C244.404 39.529 249.041 38.5911 253.724 38.5911V36.2586Z" fill="white"/>
<path d="M303.415 100.232L319.942 47.735L336.429 100.232H344.438L365.709 36.1963H357.103L341.214 84.9735L340.25 89.1142H340.107L339.279 85.2081L324.225 36.1963H315.612L300.564 85.2565L299.824 89.1142H299.641L298.718 85.3531L282.788 36.1963H274.134L295.447 100.232H303.415Z" fill="white"/>
<path d="M386.729 50.854C372.781 50.854 362.329 62.2064 362.329 76.2364C362.329 90.2664 372.829 101.633 386.729 101.633C400.772 101.633 411.225 90.3768 411.225 76.2571C411.225 62.1374 400.732 50.854 386.729 50.854ZM386.824 93.9861C377.471 93.9861 370.243 86.45 370.243 76.2364C370.243 66.0227 377.471 58.4798 386.824 58.4798C396.177 58.4798 403.304 66.071 403.304 76.2364C403.304 86.4017 396.123 93.9861 386.824 93.9861Z" fill="white"/>
<path d="M425.974 74.9874C425.974 64.7323 433.107 58.3833 440.906 58.3833C449.051 58.3833 454.026 63.2141 454.026 74.2973V100.252H461.947V74.1938C461.947 58.8456 455.404 50.8403 442.942 50.8403C434.974 50.8403 428.295 55.3054 425.628 61.475V52.1999H418.06V100.252H425.974V74.9874Z" fill="white"/>
<path d="M516.979 100.253V37.5767H509.051V57.6866L509.234 62.3448C507.596 58.9147 505.045 56.0201 501.87 53.9891C498.696 51.9582 495.026 50.8723 491.275 50.8544C477.795 50.8544 468.117 62.2068 468.117 76.2368C468.117 90.2668 477.979 101.64 491.194 101.64C494.992 101.674 498.719 100.599 501.935 98.5443C505.15 96.4894 507.719 93.5401 509.336 90.046V100.253H516.979ZM492.544 94.0417C483.076 94.0417 476.017 86.2779 476.017 76.2023C476.017 66.1266 483.273 58.3974 492.544 58.3974C501.816 58.3974 509.146 66.2509 509.146 76.2368C509.146 86.2227 501.728 94.0762 492.524 94.0762L492.544 94.0417Z" fill="white"/>
<path d="M547.06 101.564C557.744 101.564 566.126 94.5935 568.78 85.7946H559.889C557.852 91.2051 553.169 94.0276 546.864 94.0276C539.133 94.0276 532.128 88.0029 531.165 78.3413H570.117C570.205 76.6023 570.253 75.8914 570.253 75.0495C570.253 62.1513 560.588 50.8403 547.047 50.8403C533.506 50.8403 523.183 62.2065 523.183 76.2365C523.183 90.2665 533.486 101.564 547.06 101.564ZM536.934 61.9719C539.743 59.6479 543.27 58.4107 546.891 58.4799C554.9 58.4799 561.667 64.3665 562.128 71.1987H531.517C532.202 67.5719 534.119 64.3056 536.934 61.9719Z" fill="white"/>
<path d="M598.305 52.1997C591.517 52.1997 586.338 56.299 584.051 62.9379V52.1997H576.388V100.252H584.39V77.6304C584.39 66.0434 590.499 59.3148 598.753 59.3148H602.9V52.1997H598.305Z" fill="white"/>
<path d="M318.957 174.917H318.91L295.1 121.571H288.062V185.606H296.213V143.192L314.234 185.606H323.532L341.695 143.171V185.606H349.847V121.571H342.713L318.957 174.917Z" fill="white"/>
<path d="M399.238 147.912C396.062 140.763 389.057 136.284 380.593 136.284C367.833 136.284 357.937 147.581 357.937 161.618C357.937 175.655 367.792 187.021 380.634 187.021C389.017 187.021 396.062 182.549 399.238 175.441V185.641H406.82V137.609H399.238V147.912ZM382.385 179.43C373.365 179.43 365.838 172.252 365.838 161.618C365.838 151.266 373.304 143.868 382.46 143.868C391.616 143.868 398.994 151.68 398.994 161.618C398.967 171.687 391.589 179.43 382.385 179.43Z" fill="white"/>
<path d="M454.875 137.588H445.162L424.997 163.15V121.571H417.076V185.606H424.997V172.101L433.793 162.163L448.284 185.606H457.271L439.59 156.842L454.875 137.588Z" fill="white"/>
<path d="M482.52 136.284C468.945 136.284 458.621 147.629 458.621 161.666C458.621 175.703 468.931 187.021 482.52 187.021C493.203 187.021 501.578 180.058 504.239 171.252H495.368C493.298 176.669 488.642 179.43 482.336 179.43C474.599 179.43 467.601 173.405 466.637 163.757H505.576C505.671 162.011 505.712 161.307 505.712 160.451C505.719 147.588 496.06 136.284 482.52 136.284ZM467.024 156.656C467.713 153.029 469.635 149.765 472.454 147.436C475.262 145.112 478.791 143.877 482.411 143.951C490.42 143.951 497.187 149.831 497.642 156.656H467.024Z" fill="white"/>
<path d="M521.268 148.375V137.609H513.646V185.641H521.621V163.033C521.621 151.446 527.73 144.717 535.977 144.717H540.124V137.609H535.563C528.734 137.609 523.596 141.701 521.268 148.375Z" fill="white"/>
<path d="M564.171 157.919C555.429 156.414 552.891 154.717 552.891 150.148C552.891 146.29 555.789 143.04 561.863 143.04C568.128 143.04 571.909 146.097 572.133 150.631H579.918C579.918 142.253 572.737 136.229 561.863 136.229C550.685 136.229 545.065 142.44 545.065 150.307C545.065 159.968 552.755 163.157 561.504 164.475C568.868 165.696 573.327 167.118 573.327 172.473C573.327 177.304 569.649 180.389 562.563 180.389C554.825 180.389 550.59 176.152 550.495 170.927L542.852 170.879C542.852 179.071 549.341 186.979 562.467 186.979C573.66 186.979 581.411 181.9 581.411 172.052C581.384 161.638 572.784 159.285 564.171 157.919Z" fill="white"/>
</g>
<defs>
<clipPath id="clip0_282_7344">
<rect width="602.866" height="187" fill="white"/>
</clipPath>
</defs>
</svg>
