<svg width="257" height="188" viewBox="0 0 257 188" fill="none" xmlns="http://www.w3.org/2000/svg">
<path d="M109.734 130.628C105.03 141.436 89.7715 140.912 85.7955 129.804L60.1132 58.0699C59.347 55.9296 59.0996 53.633 59.3921 51.3749C59.6845 49.1167 60.5082 46.9635 61.7932 45.0978C63.0783 43.2321 64.7868 41.709 66.7739 40.6576C68.7611 39.6061 70.9683 39.0574 73.2084 39.0578V36.7397H0V39.0578C4.08137 39.0611 8.06318 40.3394 11.4064 42.7197C14.7497 45.0999 17.2929 48.4672 18.6918 52.3656L67.1175 187.643H86.4548L110.365 132.764L111.052 131.214L109.747 130.628H109.734Z" fill="white"/>
<path d="M195.021 130.628C190.317 141.436 175.059 140.912 171.083 129.804L145.387 58.0699C144.62 55.9296 144.373 53.633 144.666 51.3748C144.958 49.1167 145.782 46.9635 147.067 45.0978C148.352 43.2321 150.06 41.709 152.047 40.6576C154.035 39.6061 156.242 39.0574 158.482 39.0578V36.7397H85.2734V39.0578C89.3487 39.0594 93.3254 40.3323 96.6667 42.7045C100.008 45.0768 102.553 48.4342 103.958 52.3237L152.391 187.608H171.728L195.639 132.729L196.326 131.179L195.021 130.593V130.628Z" fill="white"/>
<path d="M256.7 36.6837C251.962 36.6837 247.27 35.7349 242.893 33.8914C238.515 32.0478 234.538 29.3457 231.188 25.9393C227.838 22.5329 225.18 18.4889 223.367 14.0383C221.554 9.58758 220.621 4.81738 220.621 0L218.3 0C218.3 9.72913 214.498 19.0598 207.732 25.9393C200.966 32.8189 191.789 36.6837 182.221 36.6837V39.0437C191.789 39.0437 200.966 42.9086 207.732 49.7881C214.498 56.6676 218.3 65.9983 218.3 75.7274H220.621C220.621 70.91 221.554 66.1398 223.367 61.6892C225.18 57.2385 227.838 53.1945 231.188 49.7881C234.538 46.3817 238.515 43.6796 242.893 41.8361C247.27 39.9925 251.962 39.0437 256.7 39.0437V36.6837Z" fill="white"/>
</svg>
